/* XPM */
static char * focus_xpm[] = {
"24 24 71 1",
" 	c None",
".	c #111111",
"+	c #000000",
"@	c #848484",
"#	c #DDDDDD",
"$	c #FAFAFA",
"%	c #EFEFEF",
"&	c #C7C7C7",
"*	c #686868",
"=	c #262626",
"-	c #050505",
";	c #5A5A5A",
">	c #FEFEFE",
",	c #5A4F3C",
"'	c #9F8C6D",
")	c #C2AA82",
"!	c #C1A77C",
"~	c #9B855D",
"{	c #57492F",
"]	c #1A1610",
"^	c #9F8D6F",
"/	c #CAB695",
"(	c #CBB899",
"_	c #C8B28C",
":	c #C6AC7F",
"<	c #C2A671",
"[	c #987E4E",
"}	c #19140B",
"|	c #9E8B6A",
"1	c #CDBCA3",
"2	c #CFBFA9",
"3	c #C7AF86",
"4	c #C4A877",
"5	c #C0A167",
"6	c #967A45",
"7	c #594C37",
"8	c #C8B189",
"9	c #D2C7B9",
"0	c #C4A979",
"a	c #C1A269",
"b	c #BD9B59",
"c	c #544221",
"d	c #9C855E",
"e	c #BD9A57",
"f	c #937538",
"g	c #BDA26E",
"h	c #BF9F63",
"i	c #BC9853",
"j	c #B38D42",
"k	c #BC9E66",
"l	c #C3A875",
"m	c #BE9C5B",
"n	c #BA964D",
"o	c #B28B3D",
"p	c #977C4A",
"q	c #BE9D5E",
"r	c #BC9852",
"s	c #B99245",
"t	c #91712E",
"u	c #554525",
"v	c #B99347",
"w	c #B78E3B",
"x	c #53401A",
"y	c #94773D",
"z	c #181308",
"A	c #927336",
"B	c #B99349",
"C	c #B89144",
"D	c #B78F3F",
"E	c #181207",
"F	c #B28A39",
"     ....               ",
"     ..                 ",
"    .   ++++++++        ",
"   .  ++@#$.....++      ",
"  .  +.%&*=--=...;+     ",
"..  +...++++++++...+    ",
".. +;>.++,')!~{++...+   ",
".  +%*+]^/(/_:<[}+..+   ",
". +@&++|/121/3456++&@+  ",
"  +#*+78(292(80abc+*#+  ",
"  +$=+d3/121/345ef+=$+  ",
"  +>-+g:_/(/_:<hij+->+  ",
"  +>-+kl:383:lamno+->+  ",
"  +$=+pa<404<aqrst+=$+  ",
"  +#*+umh5a5hmrvwx+*#+  ",
"  +@&++yiebeinswt++&@+ .",
"   +..+zAvBvCDwtE+*%+  .",
"   +;..++xtFFtx++.>;+ ..",
"    +....+++++++...+  ..",
"     +.....--=*&%.+  .  ",
"      ++.....$#@++  .   ",
"        ++++++++   .    ",
"                 ..     ",
"               ....     "};
