/* XPM */
static char * release_2_xpm[] = {
"24 24 51 1",
" 	c None",
".	c #000000",
"+	c #736B54",
"@	c #908669",
"#	c #B4A884",
"$	c #998F70",
"%	c #CAC3AA",
"&	c #D3CDB8",
"*	c #C0B799",
"=	c #BBB191",
"-	c #C2B99C",
";	c #7A735A",
">	c #434032",
",	c #080807",
"'	c #948B6D",
")	c #5C5543",
"!	c #494435",
"~	c #EF6161",
"{	c #F26C6C",
"]	c #F17474",
"^	c #F07B7B",
"/	c #F36363",
"(	c #F45959",
"_	c #F54D4D",
":	c #F74242",
"<	c #F83636",
"[	c #EA2626",
"}	c #F25F5F",
"|	c #F26E6E",
"1	c #EF8888",
"2	c #ED9494",
"3	c #EC9F9F",
"4	c #F36060",
"5	c #F55252",
"6	c #F64545",
"7	c #F83737",
"8	c #FA2929",
"9	c #F91A1A",
"0	c #F05353",
"a	c #F17171",
"b	c #F07F7F",
"c	c #EE8C8C",
"d	c #ED9A9A",
"e	c #EBA7A7",
"f	c #F55555",
"g	c #F64747",
"h	c #F83939",
"i	c #F92B2B",
"j	c #FB1D1D",
"k	c #E60D0D",
"l	c #AFAFAF",
"         ......         ",
"         .+@##@...      ",
"       .......$@+..     ",
"      .@%&***#=##@+.    ",
"      .+@@@=----=-#@.   ",
"       ....@------#=#   ",
"       .;###==------=   ",
"       .>+@#=-=-=----   ",
"        ,..@##-=-=-=-   ",
"        .'###########   ",
"        .+@##########   ",
"         ..######@@+)   ",
"         .@####@@+)..   ",
"         .+@++)!...     ",
"         .......        ",
"      ............      ",
"    ..~{]^]{/(_:<[..    ",
"   .}|^12321^|456789.   ",
"  .0/abcdedcba/fghijk.  ",
"  ....................  ",
"         .llll.         ",
"........................",
".llllllllllllllllllllll.",
"........................"};
