/* XPM */
static char * settings_xpm[] = {
"24 21 7 1",
" 	c None",
".	c #000000",
"+	c #FFFFFF",
"@	c #8E8E8E",
"#	c #FFFA00",
"$	c #FF0000",
"%	c #3FFF00",
".... .... .... .... ....",
".++. .@@. .++. .++. .++.",
".++. .@@. .++. .++. .++.",
".... .... .... .... ....",
"                        ",
".... .... .... .... ....",
".##. .$$. .##. .##. .%%.",
".##. .$$. .##. .##. .%%.",
".##. .$$. .##. .##. .%%.",
".##. .$$. .##. .##. .%%.",
".... .... .... .... ....",
"                        ",
".... .... .... .... ....",
".@@. .++. .++. .++. .@@.",
".@@. .++. .++. .++. .@@.",
".... .... .... .... ....",
"                        ",
".... .... .... .... ....",
".++. .@@. .@@. .++. .++.",
".++. .@@. .@@. .++. .++.",
".... .... .... .... ...."};
