/* XPM */
static char * status_xpm[] = {
"24 24 391 2",
"  	c None",
". 	c #111111",
"+ 	c #17171A",
"@ 	c #404556",
"# 	c #626882",
"$ 	c #5F6785",
"% 	c #697090",
"& 	c #3D3B45",
"* 	c #6A7095",
"= 	c #5B5E79",
"- 	c #43465A",
"; 	c #19191C",
"> 	c #3D4153",
", 	c #69718C",
"' 	c #757D9D",
") 	c #73769B",
"! 	c #9099C3",
"~ 	c #9DA7E0",
"{ 	c #8188A6",
"] 	c #A0AADF",
"^ 	c #8088AE",
"/ 	c #666D87",
"( 	c #6A6C8C",
"_ 	c #474A5E",
": 	c #19191D",
"< 	c #565A79",
"[ 	c #5D617C",
"} 	c #8A91BA",
"| 	c #959DCB",
"1 	c #9097C4",
"2 	c #9CA4D4",
"3 	c #646B8B",
"4 	c #525C77",
"5 	c #4A4F66",
"6 	c #A2AAE4",
"7 	c #959BCE",
"8 	c #8C97C4",
"9 	c #747EA2",
"0 	c #5B627E",
"a 	c #23232A",
"b 	c #1F2026",
"c 	c #585E7A",
"d 	c #52546E",
"e 	c #949DCB",
"f 	c #96A0CE",
"g 	c #9198C6",
"h 	c #8990BE",
"i 	c #9BA4D2",
"j 	c #6A7190",
"k 	c #505467",
"l 	c #4C5166",
"m 	c #9BA4D8",
"n 	c #939BCC",
"o 	c #949CC8",
"p 	c #969FCD",
"q 	c #8890B8",
"r 	c #4C5067",
"s 	c #202025",
"t 	c #595F79",
"u 	c #626787",
"v 	c #5F6581",
"w 	c #666988",
"x 	c #6C7194",
"y 	c #98A0D1",
"z 	c #939BCA",
"A 	c #96A0D0",
"B 	c #8D94C0",
"C 	c #8A90BB",
"D 	c #848AB3",
"E 	c #949BC6",
"F 	c #8F94C3",
"G 	c #8A93C1",
"H 	c #7880A8",
"I 	c #8992BF",
"J 	c #646787",
"K 	c #666A8D",
"L 	c #44475A",
"M 	c #636F8D",
"N 	c #7E87A8",
"O 	c #5F627E",
"P 	c #51576C",
"Q 	c #5E6381",
"R 	c #9BA5D5",
"S 	c #9AA2D3",
"T 	c #99A3D2",
"U 	c #919BCB",
"V 	c #898EBD",
"W 	c #97A1CB",
"X 	c #979ECD",
"Y 	c #9097C3",
"Z 	c #9299C4",
"` 	c #45485A",
" .	c #4B4E67",
"..	c #51576D",
"+.	c #7A7DA4",
"@.	c #18181B",
"#.	c #71769D",
"$.	c #777DA3",
"%.	c #8790B8",
"&.	c #6B6E8C",
"*.	c #64657E",
"=.	c #6B728E",
"-.	c #98A0CF",
";.	c #959BCD",
">.	c #5D6483",
",.	c #5D617D",
"'.	c #393A49",
").	c #585B77",
"!.	c #707394",
"~.	c #808CB4",
"{.	c #9296C1",
"].	c #555A6F",
"^.	c #4D4F64",
"/.	c #595F74",
"(.	c #9AA4DC",
"_.	c #68708E",
":.	c #18191C",
"<.	c #3D4053",
"[.	c #5F6884",
"}.	c #8990B9",
"|.	c #8E98C4",
"1.	c #979FD0",
"2.	c #98A2CF",
"3.	c #929CCD",
"4.	c #9CA4D5",
"5.	c #8A91BE",
"6.	c #8E96BF",
"7.	c #9CA7D7",
"8.	c #939BC4",
"9.	c #A5B0E2",
"0.	c #949DC9",
"a.	c #000000",
"b.	c #6E7996",
"c.	c #9CA6D1",
"d.	c #8E97C1",
"e.	c #9097C8",
"f.	c #959ED2",
"g.	c #7880A6",
"h.	c #434556",
"i.	c #595E75",
"j.	c #757CA3",
"k.	c #8A92B8",
"l.	c #8991BE",
"m.	c #929ACA",
"n.	c #949CCB",
"o.	c #9EA7D8",
"p.	c #797DA2",
"q.	c #5D5F75",
"r.	c #57576D",
"s.	c #73768F",
"t.	c #2D2A34",
"u.	c #020000",
"v.	c #8E94BA",
"w.	c #888FB9",
"x.	c #8D97C6",
"y.	c #909BCA",
"z.	c #7B85AE",
"A.	c #565B73",
"B.	c #656B8C",
"C.	c #7D85B2",
"D.	c #96A0CA",
"E.	c #9197C3",
"F.	c #8E93BF",
"G.	c #A1A9DC",
"H.	c #A5ADDF",
"I.	c #9A9CC9",
"J.	c #A6ABD1",
"K.	c #ACAFD7",
"L.	c #8688A2",
"M.	c #343034",
"N.	c #8388A5",
"O.	c #8E95BB",
"P.	c #8690BB",
"Q.	c #8A92BC",
"R.	c #929BCB",
"S.	c #5C627D",
"T.	c #5F6686",
"U.	c #676F8A",
"V.	c #4C4E61",
"W.	c #565C73",
"X.	c #8F96C3",
"Y.	c #9095C3",
"Z.	c #969ECF",
"`.	c #9AA2D6",
" +	c #9DA8DF",
".+	c #9FA8D6",
"++	c #4D434F",
"@+	c #5E5E6F",
"#+	c #A4AACB",
"$+	c #9BA0C4",
"%+	c #9196BF",
"&+	c #7F83A8",
"*+	c #656D87",
"=+	c #7980A7",
"-+	c #8188AD",
";+	c #686F8E",
">+	c #53546F",
",+	c #6D7499",
"'+	c #4A485A",
")+	c #989ECA",
"!+	c #9198C5",
"~+	c #8F96C1",
"{+	c #99A0D1",
"]+	c #B3B5DD",
"^+	c #24150E",
"/+	c #483431",
"(+	c #2F2B2F",
"_+	c #B1BAEC",
":+	c #939AC4",
"<+	c #9195BB",
"[+	c #8D96B9",
"}+	c #898BB3",
"|+	c #4D4C65",
"1+	c #53586B",
"2+	c #4E5266",
"3+	c #40434F",
"4+	c #515974",
"5+	c #7881A1",
"6+	c #7881A2",
"7+	c #838CB1",
"8+	c #8E96BD",
"9+	c #8D95C0",
"0+	c #959CCB",
"a+	c #9DA4D0",
"b+	c #9FA7CD",
"c+	c #212026",
"d+	c #141716",
"e+	c #25232A",
"f+	c #79809D",
"g+	c #99A3D1",
"h+	c #919AC2",
"i+	c #8E95C2",
"j+	c #6A6D90",
"k+	c #545B73",
"l+	c #484861",
"m+	c #737998",
"n+	c #727A9C",
"o+	c #555973",
"p+	c #8C93BB",
"q+	c #929BCA",
"r+	c #8E94BE",
"s+	c #8F95BC",
"t+	c #A3AADB",
"u+	c #7F7A9C",
"v+	c #090304",
"w+	c #26181D",
"x+	c #B0BFE6",
"y+	c #857590",
"z+	c #8581AA",
"A+	c #8B8EB5",
"B+	c #9197C1",
"C+	c #939AC9",
"D+	c #8B94BD",
"E+	c #9098C2",
"F+	c #9299C5",
"G+	c #97A0D1",
"H+	c #8C95C0",
"I+	c #3D3F4E",
"J+	c #6F7796",
"K+	c #9298C8",
"L+	c #8C91B9",
"M+	c #9399C4",
"N+	c #A2ACDB",
"O+	c #6E6D88",
"P+	c #030500",
"Q+	c #5A5260",
"R+	c #8B789B",
"S+	c #898BB0",
"T+	c #736684",
"U+	c #786783",
"V+	c #77657D",
"W+	c #8E8FB7",
"X+	c #8F96C2",
"Y+	c #868EB5",
"Z+	c #848BB3",
"`+	c #878EB9",
" @	c #8B92BE",
".@	c #696D94",
"+@	c #373A49",
"@@	c #777D9F",
"#@	c #959CC7",
"$@	c #929CC8",
"%@	c #636884",
"&@	c #55576D",
"*@	c #1F191C",
"=@	c #8D96B8",
"-@	c #8B7DA1",
";@	c #837694",
">@	c #776985",
",@	c #7D6E8C",
"'@	c #827794",
")@	c #97A3D3",
"!@	c #868FB5",
"~@	c #757EA2",
"{@	c #6E7393",
"]@	c #7F87AB",
"^@	c #8B93C4",
"/@	c #666D8C",
"(@	c #171719",
"_@	c #50556A",
":@	c #8D99C7",
"<@	c #A2AEE3",
"[@	c #1A1419",
"}@	c #586178",
"|@	c #A0AAD6",
"1@	c #9395BD",
"2@	c #725B7B",
"3@	c #776383",
"4@	c #735978",
"5@	c #746483",
"6@	c #6D5875",
"7@	c #7B6F8F",
"8@	c #8993B8",
"9@	c #8086A8",
"0@	c #4E5068",
"a@	c #333641",
"b@	c #656A86",
"c@	c #7C87B1",
"d@	c #3E4355",
"e@	c #666A88",
"f@	c #282632",
"g@	c #180E0A",
"h@	c #919FCC",
"i@	c #9EA8D9",
"j@	c #8687AE",
"k@	c #7A6985",
"l@	c #7D6F8B",
"m@	c #77617E",
"n@	c #726584",
"o@	c #796688",
"p@	c #726280",
"q@	c #97A2D0",
"r@	c #75799E",
"s@	c #565A71",
"t@	c #494E60",
"u@	c #646B89",
"v@	c #57617A",
"w@	c #1B1C1F",
"x@	c #4F5161",
"y@	c #827F96",
"z@	c #7E88A9",
"A@	c #98A1CF",
"B@	c #929CC1",
"C@	c #9399C1",
"D@	c #949CC3",
"E@	c #919AC3",
"F@	c #949DCC",
"G@	c #919CCB",
"H@	c #8E96C3",
"I@	c #959FD0",
"J@	c #9096C3",
"K@	c #949CCE",
"L@	c #7C86B2",
"M@	c #535974",
"N@	c #1E2026",
"O@	c #282932",
"P@	c #7E89B1",
"Q@	c #99A4D7",
"R@	c #929BC9",
"S@	c #9298BE",
"T@	c #9197BF",
"U@	c #8D93B6",
"V@	c #8D96C0",
"W@	c #929ACC",
"X@	c #9199C9",
"Y@	c #8F97C7",
"Z@	c #9097C5",
"`@	c #8C93BF",
" #	c #727AA0",
".#	c #1A1B1E",
"+#	c #545A72",
"@#	c #8E96C5",
"##	c #959ECC",
"$#	c #969EC9",
"%#	c #9398BB",
"&#	c #929CC9",
"*#	c #939CC9",
"=#	c #949BCB",
"-#	c #9097C6",
";#	c #8A90BC",
">#	c #4A4E66",
",#	c #1A1A1E",
"'#	c #474B5E",
")#	c #3B3E50",
"!#	c #787EA2",
"~#	c #5F6687",
"{#	c #71799B",
"]#	c #60627D",
"^#	c #535873",
"/#	c #44495B",
"(#	c #191A1C",
"                  . . . . . .                   ",
"            . + @ # $ % & * = - ; .             ",
"          . > , ' ) ! ~ { ] ^ / ( _ .           ",
"        : < [ } | 1 2 3 4 5 6 7 8 9 0 a         ",
"      b c d e f g h i j k l m n o p q r s       ",
"    . t u v w x y z A B C D E F G H I J K .     ",
"  . L M N O P Q R S T U V W X Y Z `  ...+.l .   ",
"  @.#.$.%.&.*.=.-.;.>.,.'.).!.~.{.].^./.(._.:.  ",
"  <.[.}.|.1.2.3.4.5.6.7.8.9.0.a.b.c.d.e.f.g.h.  ",
". i.j.k.l.m.g n.o.p.q.r.k s.t.a.u.v.w.x.y.z.A.. ",
". B.C.D.8.E.F.n.G.H.I.J.K.L.a.u.M.N.O.P.Q.R.S.. ",
". T.U.V.W.X.Y.Z.`. +.+++a.a.@+#+$+%+&+*+=+-+;+. ",
". >+,+'+/ )+!+~+6.{+]+^+/+(+_+:+<+[+}+|+1+2+3+. ",
". 4+5+6+7+8+9+0+a+b+c+d+e+f+g+h+X.i+j+k+l+m+n+. ",
". o+p+q+r+s+8.t+u+v+w+x+y+z+A+B+C+D+E+F+G+H+P . ",
"  I+J+K+L+M+N+O+P+Q+R+S+T+U+V+W+X+Y+Z+`+ @.@+@  ",
"  ; @@#@$@%@&@*@=@-@;@>@,@>@'@)@!@~@{@]@^@/@(@  ",
"  . _@:@<@[@}@|@1@2@3@4@5@6@7@8@9@0@a@b@c@d@.   ",
"    . e@f@g@h@i@j@k@l@m@n@o@p@q@r@s@t@u@v@.     ",
"      w@x@y@z@A@B@C@D@E@F@G@H@I@J@K@L@M@N@      ",
"        O@P@Q@R@S@T@U@V@W@X@Y@Z@`@l. #.#        ",
"          . +#@###$#%#Z.&#*#=#-#;#>#.           ",
"            . ,#'#)#!#~#{#]#^#/#(#.             ",
"                  . . . . . .                   "};
