/* XPM */
static char * controls_xpm[] = {
"24 21 12 1",
" 	c None",
".	c #000000",
"+	c #747541",
"@	c #C1C36D",
"#	c #DDE07D",
"$	c #A7A95E",
"%	c #CC0600",
"&	c #C9CB71",
"*	c #4D4E2B",
"=	c #0D0D07",
"-	c #1E1E11",
";	c #8E8E8E",
".  .....  .     .....  .",
"  .+@#@+.      .+@#@+.  ",
" .$#####$.    .$#####$. ",
".+####%##+.  .+%######+.",
".@####%##@.  .@#%#####@.",
".####%####.  .###%#####.",
".@&*=.=*&@.  .@&*=.=*&@.",
".+-.....-+.  .+-.....-+.",
" .........    ......... ",
"  .......      .......  ",
".  .....  .  .  .....  .",
"                        ",
".... .... .... .... ....",
".;;. .;;. .;;. .;;. .;;.",
".;;. .;;. .;;. .;;. .;;.",
".%%. .;;. .%%. .;;. .;;.",
".;;. .%%. .;;. .;;. .;;.",
".;;. .;;. .;;. .;;. .;;.",
".;;. .;;. .;;. .;;. .%%.",
".;;. .;;. .;;. .%%. .;;.",
".... .... .... .... ...."};
